<svg width="36" height="36" viewBox="0 0 36 36" fill="none" xmlns="http://www.w3.org/2000/svg">
<path d="M13.1891 7.3564e-05C10.0964 -0.0178636 7.08545 3.2467 8.46 7.30051H3.27273C2.40475 7.30051 1.57232 7.67847 0.95856 8.35124C0.344804 9.02402 0 9.9365 0 10.8879V14.4754C0 14.9511 0.172402 15.4073 0.47928 15.7437C0.786157 16.0801 1.20237 16.2691 1.63636 16.2691H16.3636V10.8879H19.6364V16.2691H34.3636C34.7976 16.2691 35.2138 16.0801 35.5207 15.7437C35.8276 15.4073 36 14.9511 36 14.4754V10.8879C36 9.9365 35.6552 9.02402 35.0414 8.35124C34.4277 7.67847 33.5953 7.30051 32.7273 7.30051H27.54C29.4545 1.43505 22.2545 -2.70844 18.9327 2.34984L18 3.71307L17.0673 2.31397C16.0364 0.717561 14.6127 0.0180107 13.1891 7.3564e-05ZM13.0909 3.71307C14.5473 3.71307 15.2836 5.65029 14.2527 6.78033C13.2218 7.91037 11.4545 7.1032 11.4545 5.50679C11.4545 5.03106 11.6269 4.57483 11.9338 4.23844C12.2407 3.90205 12.6569 3.71307 13.0909 3.71307ZM22.9091 3.71307C24.3655 3.71307 25.1018 5.65029 24.0709 6.78033C23.04 7.91037 21.2727 7.1032 21.2727 5.50679C21.2727 5.03106 21.4451 4.57483 21.752 4.23844C22.0589 3.90205 22.4751 3.71307 22.9091 3.71307ZM1.63636 18.0628V32.4126C1.63636 33.364 1.98117 34.2765 2.59492 34.9493C3.20868 35.622 4.04111 36 4.90909 36H31.0909C31.9589 36 32.7913 35.622 33.4051 34.9493C34.0188 34.2765 34.3636 33.364 34.3636 32.4126V18.0628H19.6364V32.4126H16.3636V18.0628H1.63636Z" fill="#C2F9BB"/>
</svg>
