<svg width="36" height="36" viewBox="0 0 36 36" fill="none" xmlns="http://www.w3.org/2000/svg">
<path d="M0 30.2727C0 31.7917 0.474106 33.2485 1.31802 34.3225C2.16193 35.3966 3.30653 36 4.5 36H31.5C32.6935 36 33.8381 35.3966 34.682 34.3225C35.5259 33.2485 36 31.7917 36 30.2727V14.5227H0V30.2727ZM5.30357 22.5C5.30357 21.6863 5.55756 20.9059 6.00965 20.3305C6.46175 19.7551 7.07492 19.4318 7.71429 19.4318H11.5714C12.2108 19.4318 12.824 19.7551 13.2761 20.3305C13.7282 20.9059 13.9821 21.6863 13.9821 22.5V24.5455C13.9821 25.3592 13.7282 26.1396 13.2761 26.715C12.824 27.2904 12.2108 27.6136 11.5714 27.6136H7.71429C7.07492 27.6136 6.46175 27.2904 6.00965 26.715C5.55756 26.1396 5.30357 25.3592 5.30357 24.5455V22.5ZM31.5 0H4.5C3.30653 0 2.16193 0.603408 1.31802 1.67748C0.474106 2.75155 0 4.20831 0 5.72727V8.38636H36V5.72727C36 4.20831 35.5259 2.75155 34.682 1.67748C33.8381 0.603408 32.6935 0 31.5 0Z" fill="#C2F9BB"/>
</svg>
