<svg width="280" height="183" viewBox="0 0 280 183" fill="none" xmlns="http://www.w3.org/2000/svg">
<path d="M-21.0247 181.836C-24.5941 181.836 -27.1548 180.361 -28.7067 177.412C-30.2587 174.463 -30.4138 171.592 -29.1723 168.798L39.2675 6.28626C40.9747 2.09542 43.9233 0 48.1135 0C52.1485 0 55.0196 2.09542 56.7267 6.28626L125.399 169.031C126.796 171.98 126.563 174.851 124.701 177.645C122.994 180.439 120.511 181.836 117.252 181.836C115.389 181.836 113.682 181.37 112.13 180.439C110.734 179.508 109.57 178.111 108.639 176.248L44.6217 20.9542H51.8381L-12.6443 176.248C-13.4203 178.111 -14.5842 179.508 -16.1361 180.439C-17.5329 181.37 -19.1624 181.836 -21.0247 181.836ZM-5.66066 138.531L1.323 122.931H95.8352L102.819 138.531H-5.66066Z" fill="#C4C4C4"/>
<path d="M213.422 183C201.473 183 190.764 180.206 181.298 174.618C171.831 168.875 164.304 161.115 158.717 151.336C153.285 141.557 150.57 130.537 150.57 118.275C150.57 105.858 153.363 94.7595 158.95 84.9809C164.692 75.2023 172.452 67.5191 182.229 61.9313C192.006 56.1883 203.025 53.3168 215.285 53.3168C227.545 53.3168 238.486 56.1883 248.108 61.9313C257.885 67.5191 265.567 75.2023 271.154 84.9809C276.896 94.7595 279.845 105.858 280 118.275L272.784 123.863C272.784 135.038 270.145 145.127 264.869 154.13C259.747 162.977 252.686 170.039 243.685 175.317C234.839 180.439 224.752 183 213.422 183ZM215.285 166.702C224.286 166.702 232.278 164.607 239.262 160.416C246.401 156.225 251.988 150.482 256.023 143.187C260.213 135.737 262.308 127.433 262.308 118.275C262.308 108.962 260.213 100.658 256.023 93.3626C251.988 86.0674 246.401 80.3244 239.262 76.1336C232.278 71.7875 224.286 69.6145 215.285 69.6145C206.439 69.6145 198.446 71.7875 191.308 76.1336C184.169 80.3244 178.504 86.0674 174.314 93.3626C170.124 100.658 168.029 108.962 168.029 118.275C168.029 127.433 170.124 135.737 174.314 143.187C178.504 150.482 184.169 156.225 191.308 160.416C198.446 164.607 206.439 166.702 215.285 166.702ZM270.921 181.836C268.283 181.836 266.11 181.06 264.403 179.508C262.696 177.8 261.842 175.627 261.842 172.989V133.176L266.265 114.782L280 118.275V172.989C280 175.627 279.146 177.8 277.439 179.508C275.732 181.06 273.56 181.836 270.921 181.836Z" fill="#C4C4C4"/>
</svg>
