<svg width="52" height="78" viewBox="0 0 52 78" fill="none" xmlns="http://www.w3.org/2000/svg">
<path d="M0 78V70.2477C2.11405 65.6361 4.89363 61.5015 8.33875 57.844C11.7839 54.107 15.5422 50.4098 19.6137 46.7523C22.6673 43.9694 25.1729 41.6636 27.1303 39.8349C29.0878 38.0061 30.6146 36.3761 31.7107 34.945C32.8069 33.5138 33.5899 32.0428 34.0597 30.5321C34.5295 29.0214 34.7644 27.1529 34.7644 24.9266C34.7644 17.5321 30.1448 13.8349 20.9056 13.8349C17.7737 13.8349 14.6418 14.1927 11.5098 14.9083C8.4562 15.5443 5.52002 16.419 2.70129 17.5321V3.33945C5.67662 2.30581 9.12173 1.5107 13.0366 0.95413C17.0298 0.318043 20.8273 0 24.429 0C33.1984 0 39.7755 2.2263 44.1602 6.6789C48.6231 11.052 50.8546 17.0153 50.8546 24.5688C50.8546 29.8165 49.5627 34.3089 46.9789 38.0459C44.4733 41.7034 41.1848 45.3211 37.1133 48.8991C33.9031 51.7615 30.8495 54.5443 27.9524 57.2477C25.0554 59.8716 22.6282 62.6544 20.6707 65.5963H51.5593V78H0Z" fill="#69BF3D" fill-opacity="0.5"/>
</svg>
