<svg width="64" height="87" viewBox="0 0 64 87" fill="none" xmlns="http://www.w3.org/2000/svg">
<path d="M33.6329 87C22.4663 87 14.047 84.2922 8.375 78.8765C2.79167 73.4608 0 65.119 0 53.8509V35.7696C0 28.7816 1.50661 22.6235 4.51984 17.2952C7.62169 11.8795 12.0086 7.64307 17.6806 4.58585C23.3525 1.52862 30.0437 0 37.754 0C42.1852 0 46.0403 0.26205 49.3194 0.78615C52.5985 1.31024 55.7447 2.09639 58.7579 3.14458V18.3434C53.1746 16.1596 46.5721 15.0678 38.9504 15.0678C31.6832 15.0678 26.1885 16.6401 22.4663 19.7846C18.744 22.9292 16.8829 27.0783 16.8829 32.2319V36.2937C19.7189 34.2846 23.0423 32.7997 26.8532 31.8389C30.664 30.7907 34.1647 30.2666 37.3552 30.2666C47.547 30.2666 55.0357 32.7124 59.8214 37.6039C64.6071 42.4955 67 49.3961 67 58.3057C67 63.8961 65.8036 68.875 63.4107 73.2425C61.1065 77.5226 57.5172 80.8855 52.6429 83.3313C47.7685 85.7771 41.4319 87 33.6329 87ZM33.7659 73.8976C39.5265 73.8976 43.8247 72.5437 46.6607 69.8358C49.4967 67.128 50.9147 63.503 50.9147 58.9608C50.9147 54.0693 49.6739 50.3133 47.1925 47.6928C44.711 45.0723 40.3241 43.7621 34.0317 43.7621C31.1071 43.7621 28.1382 44.2861 25.125 45.3343C22.1118 46.3825 19.3644 47.7364 16.8829 49.3961V57.3886C16.8829 68.3946 22.5106 73.8976 33.7659 73.8976Z" fill="#69BF3D" fill-opacity="0.5"/>
</svg>
