<svg width="50" height="51" viewBox="0 0 50 51" fill="none" xmlns="http://www.w3.org/2000/svg">
<path d="M21.571 37.261L39.0903 19.7417L35.6113 16.2627L21.571 30.303L14.4888 23.2207L11.0098 26.6997L21.571 37.261ZM25.05 50.68C21.6124 50.68 18.3819 50.0273 15.3585 48.7218C12.3351 47.4163 9.70514 45.6462 7.46864 43.4114C5.23214 41.1749 3.46199 38.5449 2.15819 35.5215C0.854396 32.4981 0.201669 29.2676 0.200012 25.83C0.200012 22.3924 0.852739 19.1619 2.15819 16.1385C3.46365 13.1151 5.23379 10.4851 7.46864 8.24861C9.70514 6.01211 12.3351 4.24196 15.3585 2.93816C18.3819 1.63436 21.6124 0.981637 25.05 0.97998C28.4876 0.97998 31.7181 1.63271 34.7415 2.93816C37.7649 4.24361 40.3949 6.01376 42.6314 8.24861C44.8679 10.4851 46.6389 13.1151 47.9443 16.1385C49.2498 19.1619 49.9017 22.3924 49.9 25.83C49.9 29.2676 49.2473 32.4981 47.9418 35.5215C46.6364 38.5449 44.8662 41.1749 42.6314 43.4114C40.3949 45.6479 37.7649 47.4188 34.7415 48.7243C31.7181 50.0297 28.4876 50.6816 25.05 50.68ZM25.05 45.71C30.5998 45.71 35.3006 43.7841 39.1524 39.9324C43.0041 36.0806 44.93 31.3798 44.93 25.83C44.93 20.2801 43.0041 15.5794 39.1524 11.7276C35.3006 7.87585 30.5998 5.94998 25.05 5.94998C19.5002 5.94998 14.7994 7.87585 10.9476 11.7276C7.09589 15.5794 5.17001 20.2801 5.17001 25.83C5.17001 31.3798 7.09589 36.0806 10.9476 39.9324C14.7994 43.7841 19.5002 45.71 25.05 45.71Z" fill="#69BF3D"/>
</svg>
