<svg width="53" height="78" viewBox="0 0 53 78" fill="none" xmlns="http://www.w3.org/2000/svg">
<path d="M22.5542 78C20.2831 78 17.738 77.8434 14.9187 77.5301C12.0994 77.2169 9.35843 76.7861 6.69578 76.238C4.03313 75.6898 1.8012 75.0632 0 74.3584V60.497C3.21084 61.8283 6.53916 62.8072 9.98494 63.4337C13.509 64.0602 16.9157 64.3735 20.2048 64.3735C25.7651 64.3735 29.8765 63.6295 32.5392 62.1416C35.2801 60.5753 36.6506 57.756 36.6506 53.6837C36.6506 50.3163 35.4367 47.9277 33.009 46.5181C30.6596 45.1084 27.253 44.4036 22.7892 44.4036H10.9247L12.0994 32.7741H21.9669C26.509 32.7741 29.8373 32.0301 31.9518 30.5422C34.0663 28.9759 35.1235 26.5482 35.1235 23.259C35.1235 19.9699 33.9096 17.5422 31.4819 15.9759C29.1325 14.3313 25.3343 13.509 20.0873 13.509C16.7199 13.509 13.3524 13.8614 9.98494 14.5663C6.69578 15.2711 3.79819 16.1717 1.29217 17.2681V3.75904C3.79819 2.66265 7.00904 1.76205 10.9247 1.05723C14.9187 0.35241 18.8735 0 22.7892 0C32.1867 0 39.2741 1.95783 44.0512 5.87349C48.8283 9.78916 51.2169 14.8404 51.2169 21.0271C51.2169 24.7078 50.3554 28.1928 48.6325 31.4819C46.988 34.6928 44.4036 37.0422 40.8795 38.5301C44.9518 39.7831 47.9277 41.8976 49.8072 44.8735C51.7651 47.7711 52.744 51.256 52.744 55.3283C52.744 60.497 51.4518 64.7651 48.8675 68.1325C46.3614 71.5 42.8373 74.006 38.2952 75.6506C33.8313 77.2169 28.5843 78 22.5542 78Z" fill="#69BF3D" fill-opacity="0.5"/>
</svg>
