<svg width="54" height="88" viewBox="0 0 54 88" fill="none" xmlns="http://www.w3.org/2000/svg">
<path d="M25.3047 88C22.7299 88 19.8886 87.8206 16.781 87.4618C13.7622 87.1927 10.7878 86.7441 7.85779 86.1162C5.01655 85.4883 2.53047 84.7258 0.399549 83.8287V68.0856C3.50715 69.4312 7.14748 70.5076 11.3205 71.315C15.5824 72.0326 19.4003 72.3914 22.7743 72.3914C28.8119 72.3914 33.2957 71.4047 36.2257 69.4312C39.2445 67.4577 40.754 64.0938 40.754 59.3395C40.754 55.1233 39.7329 52.0285 37.6907 50.055C35.7374 48.0816 31.7863 47.0948 25.8375 47.0948H0V36.8685L2.26411 0H53.2731L51.9413 13.9939H17.5801L16.3815 33.1009H29.3002C39.6885 33.1009 47.2355 35.3884 51.9413 39.9633C56.6471 44.5382 59 51.2212 59 60.0122C59 68.5341 56.1588 75.3517 50.4763 80.4648C44.8826 85.4883 36.4921 88 25.3047 88Z" fill="#69BF3D" fill-opacity="0.5"/>
</svg>
