<svg width="36" height="35" viewBox="0 0 36 35" fill="none" xmlns="http://www.w3.org/2000/svg">
<path d="M18.0195 0C15.7214 0 13.4458 0.452651 11.3226 1.33211C9.19937 2.21157 7.27019 3.50061 5.64516 5.12563C2.36328 8.40752 0.519531 12.8587 0.519531 17.5C0.519531 22.1413 2.36328 26.5925 5.64516 29.8744C7.27019 31.4994 9.19937 32.7884 11.3226 33.6679C13.4458 34.5474 15.7214 35 18.0195 35C22.6608 35 27.112 33.1563 30.3939 29.8744C33.6758 26.5925 35.5195 22.1413 35.5195 17.5C35.5195 15.2019 35.0669 12.9262 34.1874 10.803C33.308 8.67984 32.0189 6.75066 30.3939 5.12563C28.7689 3.50061 26.8397 2.21157 24.7165 1.33211C22.5933 0.452651 20.3177 0 18.0195 0ZM9.39203 28.49C10.1445 26.915 14.7295 25.375 18.0195 25.375C21.3095 25.375 25.8945 26.915 26.647 28.49C24.196 30.443 21.1536 31.5045 18.0195 31.5C14.7645 31.5 11.772 30.38 9.39203 28.49ZM29.1495 25.9525C26.647 22.9075 20.5745 21.875 18.0195 21.875C15.4645 21.875 9.39203 22.9075 6.88953 25.9525C5.02785 23.5281 4.01895 20.5567 4.01953 17.5C4.01953 9.7825 10.302 3.5 18.0195 3.5C25.737 3.5 32.0195 9.7825 32.0195 17.5C32.0195 20.685 30.9345 23.625 29.1495 25.9525ZM18.0195 7C14.6245 7 11.8945 9.73 11.8945 13.125C11.8945 16.52 14.6245 19.25 18.0195 19.25C21.4145 19.25 24.1445 16.52 24.1445 13.125C24.1445 9.73 21.4145 7 18.0195 7ZM18.0195 15.75C17.3233 15.75 16.6557 15.4734 16.1634 14.9812C15.6711 14.4889 15.3945 13.8212 15.3945 13.125C15.3945 12.4288 15.6711 11.7611 16.1634 11.2688C16.6557 10.7766 17.3233 10.5 18.0195 10.5C18.7157 10.5 19.3834 10.7766 19.8757 11.2688C20.368 11.7611 20.6445 12.4288 20.6445 13.125C20.6445 13.8212 20.368 14.4889 19.8757 14.9812C19.3834 15.4734 18.7157 15.75 18.0195 15.75Z" fill="#69BF3D"/>
</svg>
