<svg width="31" height="31" viewBox="0 0 31 31" fill="none" xmlns="http://www.w3.org/2000/svg">
<path d="M18.4366 15.31C18.4366 16.834 17.2011 18.0695 15.6771 18.0695C14.1531 18.0695 12.9176 16.834 12.9176 15.31C12.9176 13.7859 14.1531 12.5504 15.6771 12.5504C17.2011 12.5504 18.4366 13.7859 18.4366 15.31Z" fill="#69BF3D"/>
<path d="M29.1506 15.31C29.1506 16.834 27.9151 18.0695 26.3911 18.0695C24.867 18.0695 23.6316 16.834 23.6316 15.31C23.6316 13.7859 24.867 12.5504 26.3911 12.5504C27.9151 12.5504 29.1506 13.7859 29.1506 15.31Z" fill="#69BF3D"/>
<path d="M7.72404 15.31C7.72404 16.834 6.48857 18.0695 4.96454 18.0695C3.44051 18.0695 2.20504 16.834 2.20504 15.31C2.20504 13.7859 3.44051 12.5504 4.96454 12.5504C6.48857 12.5504 7.72404 13.7859 7.72404 15.31Z" fill="#69BF3D"/>
<path d="M26.5529 23.4261C26.5529 24.9501 25.3174 26.1856 23.7934 26.1856C22.2694 26.1856 21.0339 24.9501 21.0339 23.4261C21.0339 21.9021 22.2694 20.6666 23.7934 20.6666C25.3174 20.6666 26.5529 21.9021 26.5529 23.4261Z" fill="#69BF3D"/>
<path d="M10.3203 23.4261C10.3203 24.9501 9.08483 26.1856 7.5608 26.1856C6.03677 26.1856 4.8013 24.9501 4.8013 23.4261C4.8013 21.9021 6.03677 20.6666 7.5608 20.6666C9.08483 20.6666 10.3203 21.9021 10.3203 23.4261Z" fill="#69BF3D"/>
<path d="M10.3203 7.19378C10.3203 8.71781 9.08483 9.95328 7.5608 9.95328C6.03677 9.95328 4.8013 8.71781 4.8013 7.19378C4.8013 5.66975 6.03677 4.43428 7.5608 4.43428C9.08483 4.43428 10.3203 5.66975 10.3203 7.19378Z" fill="#69BF3D"/>
<path d="M26.5529 7.19378C26.5529 8.71781 25.3174 9.95328 23.7934 9.95328C22.2694 9.95328 21.0339 8.71781 21.0339 7.19378C21.0339 5.66975 22.2694 4.43428 23.7934 4.43428C25.3174 4.43428 26.5529 5.66975 26.5529 7.19378Z" fill="#69BF3D"/>
<path d="M18.4366 25.6987C18.4366 27.2227 17.2011 28.4582 15.6771 28.4582C14.1531 28.4582 12.9176 27.2227 12.9176 25.6987C12.9176 24.1746 14.1531 22.9392 15.6771 22.9392C17.2011 22.9392 18.4366 24.1746 18.4366 25.6987Z" fill="#69BF3D"/>
<path d="M18.4366 4.92126C18.4366 6.44529 17.2011 7.68077 15.6771 7.68077C14.1531 7.68077 12.9176 6.44529 12.9176 4.92126C12.9176 3.39723 14.1531 2.16176 15.6771 2.16176C17.2011 2.16176 18.4366 3.39723 18.4366 4.92126Z" fill="#69BF3D"/>
<path fill-rule="evenodd" clip-rule="evenodd" d="M23.9558 15.7969H6.42484V15.1181H23.9558V15.7969Z" fill="#69BF3D"/>
<path fill-rule="evenodd" clip-rule="evenodd" d="M15.1906 24.5624L15.1906 7.03147H15.8694L15.8694 24.5624H15.1906Z" fill="#69BF3D"/>
<path fill-rule="evenodd" clip-rule="evenodd" d="M21.4181 22.0249L8.75683 9.36364L9.23682 8.88365L21.8981 21.5449L21.4181 22.0249Z" fill="#69BF3D"/>
<path fill-rule="evenodd" clip-rule="evenodd" d="M22.0682 8.97931L9.67192 21.3756L9.19193 20.8956L21.5882 8.49932L22.0682 8.97931Z" fill="#69BF3D"/>
<path fill-rule="evenodd" clip-rule="evenodd" d="M15.5153 27.7056C22.4508 27.7056 28.0732 22.0832 28.0732 15.1476C28.0732 8.21207 22.4508 2.58969 15.5153 2.58969C8.5797 2.58969 2.95732 8.21207 2.95732 15.1476C2.95732 22.0832 8.5797 27.7056 15.5153 27.7056ZM15.5153 30.0814C23.763 30.0814 30.449 23.3953 30.449 15.1476C30.449 6.89994 23.763 0.213867 15.5153 0.213867C7.26757 0.213867 0.581497 6.89994 0.581497 15.1476C0.581497 23.3953 7.26757 30.0814 15.5153 30.0814Z" fill="#69BF3D"/>
</svg>
