<svg width="40" height="40" viewBox="0 0 40 40" fill="none" xmlns="http://www.w3.org/2000/svg">
<path d="M19.8383 0.406738C8.95471 0.406738 0.141357 9.23981 0.141357 20.1234C0.141357 31.007 8.95471 39.8401 19.8383 39.8401C30.7416 39.8401 39.5747 31.007 39.5747 20.1234C39.5747 9.23981 30.7416 0.406738 19.8383 0.406738ZM19.858 35.8967C11.1433 35.8967 4.08469 28.8382 4.08469 20.1234C4.08469 11.4086 11.1433 4.35007 19.858 4.35007C28.5728 4.35007 35.6314 11.4086 35.6314 20.1234C35.6314 28.8382 28.5728 35.8967 19.858 35.8967ZM20.8439 10.2651H17.8864V22.0951L28.2376 28.3058L29.7164 25.8807L20.8439 20.6163V10.2651Z" fill="#69BF3D"/>
</svg>
